<svg width="26" height="21" viewBox="0 0 26 21" fill="none" xmlns="http://www.w3.org/2000/svg">
<g clip-path="url(#clip0_496_96)">
<path d="M14.708 10.5011L17.2428 13.3445L20.6515 15.4817L21.2461 10.5198L20.6515 5.66602L17.1772 7.54357L14.708 10.5011Z" fill="#188038"/>
<path d="M0 15.0209V19.2495C0 20.2174 0.797689 21.0004 1.78369 21.0004H6.09163L6.98242 17.804L6.09163 15.0209L3.13574 14.1465L0 15.0209Z" fill="#1967D2"/>
<path d="M6.09163 0L0 5.97953L3.13574 6.85392L6.09163 5.97953L6.96761 3.2338L6.09163 0Z" fill="#EA4335"/>
<path d="M0 15.0204H6.09163V5.97949H0V15.0204Z" fill="#4285F4"/>
<path d="M24.5423 2.53167L20.6512 5.66578V15.4814L24.5592 18.628C25.1453 19.0766 26.0002 18.6675 26.0002 17.9385V3.20876C26.0002 2.46936 25.1242 2.06436 24.5423 2.53167ZM14.7077 10.5009V15.0224H6.0918V21.002H18.8696C19.8556 21.002 20.6533 20.2189 20.6533 19.2511V15.4814L14.7077 10.5009Z" fill="#34A853"/>
<path d="M18.8696 0H6.0918V5.97953H14.7098V10.501L20.6512 5.66591V1.75087C20.6512 0.783009 19.8535 0 18.8696 0Z" fill="#FBBC04"/>
</g>
<defs>
<clipPath id="clip0_496_96">
<rect width="26" height="21" fill="white"/>
</clipPath>
</defs>
</svg>
